HIERARCHY
ROOT root
{
  OFFSET 0 98.6856 0
  CHANNELS 6 Xposition Yposition Zposition Zrotation Xrotation Yrotation
  JOINT torso_1
  {
    OFFSET 0 5.37224 -1.21793
    CHANNELS 6 Xposition Yposition Zposition Zrotation Xrotation Yrotation
    JOINT torso_2
    {
      OFFSET 0 5.94127 1.13336
      CHANNELS 6 Xposition Yposition Zposition Zrotation Xrotation Yrotation
      JOINT torso_3
      {
        OFFSET -1.08535e-17 6.33601 0.121658
        CHANNELS 6 Xposition Yposition Zposition Zrotation Xrotation Yrotation
        JOINT torso_4
        {
          OFFSET -1.16841e-17 6.88189 -0.46916
          CHANNELS 6 Xposition Yposition Zposition Zrotation Xrotation Yrotation
          JOINT torso_5
          {
            OFFSET -2.08699e-17 8.0451 -1.59297
            CHANNELS 6 Xposition Yposition Zposition Zrotation Xrotation Yrotation
            JOINT torso_6
            {
              OFFSET -2.67949e-17 10.0463 -0.967353
              CHANNELS 6 Xposition Yposition Zposition Zrotation Xrotation Yrotation
              JOINT torso_7
              {
                OFFSET -3.07187e-17 11.1612 1.66806
                CHANNELS 6 Xposition Yposition Zposition Zrotation Xrotation Yrotation
                JOINT neck_1
                {
                  OFFSET -1.36661e-17 5.06312 0.756688
                  CHANNELS 6 Xposition Yposition Zposition Zrotation Xrotation Yrotation
                  JOINT neck_2
                  {
                    OFFSET -1.91632e-17 5.09976 0.446172
                    CHANNELS 6 Xposition Yposition Zposition Zrotation Xrotation Yrotation
                    JOINT head
                    {
                      OFFSET -2.12574e-17 5.10962 0.809285
                      CHANNELS 6 Xposition Yposition Zposition Zrotation Xrotation Yrotation
                      End Site
                      {
                        OFFSET 0 0.1 0
                      }
                    }
                  }
                }
                JOINT l_shoulder
                {
                  OFFSET 1.30426 -8.04703 7.96922
                  CHANNELS 6 Xposition Yposition Zposition Zrotation Xrotation Yrotation
                  JOINT l_up_arm
                  {
                    OFFSET 13.7035 3.43734 -3.45766
                    CHANNELS 6 Xposition Yposition Zposition Zrotation Xrotation Yrotation
                    JOINT l_low_arm
                    {
                      OFFSET 30.8964 0.0632652 0.14496
                      CHANNELS 6 Xposition Yposition Zposition Zrotation Xrotation Yrotation
                      JOINT l_hand
                      {
                        OFFSET 25.6348 0.0524902 0.120274
                        CHANNELS 6 Xposition Yposition Zposition Zrotation Xrotation Yrotation
                        End Site
                        {
                          OFFSET 0.1 0 0
                        }
                      }
                    }
                  }
                }
                JOINT r_shoulder
                {
                  OFFSET -1.30426 -8.04702 7.96912
                  CHANNELS 6 Xposition Yposition Zposition Zrotation Xrotation Yrotation
                  JOINT r_up_arm
                  {
                    OFFSET -13.7035 3.43734 -3.45766
                    CHANNELS 6 Xposition Yposition Zposition Zrotation Xrotation Yrotation
                    JOINT r_low_arm
                    {
                      OFFSET -30.8964 0.0632652 0.14496
                      CHANNELS 6 Xposition Yposition Zposition Zrotation Xrotation Yrotation
                      JOINT r_hand
                      {
                        OFFSET -25.6348 0.0524901 0.120274
                        CHANNELS 6 Xposition Yposition Zposition Zrotation Xrotation Yrotation
                        End Site
                        {
                          OFFSET -0.1 0 0
                        }
                      }
                    }
                  }
                }
              }
            }
          }
        }
      }
    }
  }
  JOINT l_up_leg
  {
    OFFSET 9.77065 -4.44866 2.1502
    CHANNELS 6 Xposition Yposition Zposition Zrotation Xrotation Yrotation
    JOINT l_low_leg
    {
      OFFSET -0.901622 -41.0132 -0.693059
      CHANNELS 6 Xposition Yposition Zposition Zrotation Xrotation Yrotation
      JOINT l_foot
      {
        OFFSET -2.46068 -42.7371 -6.39839
        CHANNELS 6 Xposition Yposition Zposition Zrotation Xrotation Yrotation
        JOINT l_toes
        {
          OFFSET 0.82413 -10.4558 13.2182
          CHANNELS 6 Xposition Yposition Zposition Zrotation Xrotation Yrotation
          End Site
          {
            OFFSET 0 0 0.1
          }
        }
      }
    }
  }
  JOINT r_up_leg
  {
    OFFSET -9.77065 -4.44866 2.1502
    CHANNELS 6 Xposition Yposition Zposition Zrotation Xrotation Yrotation
    JOINT r_low_leg
    {
      OFFSET 0.901622 -41.0132 -0.693059
      CHANNELS 6 Xposition Yposition Zposition Zrotation Xrotation Yrotation
      JOINT r_foot
      {
        OFFSET 2.46068 -42.7371 -6.39839
        CHANNELS 6 Xposition Yposition Zposition Zrotation Xrotation Yrotation
        JOINT r_toes
        {
          OFFSET -0.82413 -10.4558 13.2182
          CHANNELS 6 Xposition Yposition Zposition Zrotation Xrotation Yrotation
          End Site
          {
            OFFSET 0 0 0.1
          }
        }
      }
    }
  }
}
MOTION
Frames: 4
Frame Time: 0.02
-73.7842 96.2534 997.853 -13.0567 -16.1585 -165.418 0 5.37224 -1.21793 -3.50046 -3.75387 3.09225 0 5.94127 1.13336 -3.58975 -2.70058 2.72487 -1.08535e-17 6.33601 0.121658 -3.004 0.0427616 2.76683 -1.16841e-17 6.88189 -0.46916 -2.47566 4.09256 2.93454 -2.08699e-17 8.0451 -1.59297 -1.15257 6.47357 3.38519 -2.67949e-17 10.0463 -0.967353 1.08208 7.60371 3.22658 -3.07187e-17 11.1612 1.66806 0.0141516 0.022066 -0.0118854 -1.36661e-17 5.06312 0.756688 0.227124 4.81259 -9.3439 -1.91632e-17 5.09976 0.446172 2.41585 -8.36408 -4.33493 -2.12574e-17 5.10962 0.809285 -0.239246 -10.016 -4.24847 1.30426 -8.04703 7.96922 10.0581 -1.45176 4.24842 13.7035 3.43734 -3.45766 -86.8794 29.5132 18.0861 30.8964 0.0632652 0.14496 11.4308 -8.25256 -72.1622 25.6348 0.0524902 0.120274 -4.71162 -40.2138 0.0593568 -1.30426 -8.04702 7.96912 -9.88248 -1.37581 -9.07864 -13.7035 3.43734 -3.45766 72.6265 46.6249 4.62647 -30.8964 0.0632652 0.14496 -11.8535 -14.0036 100.181 -25.6348 0.0524901 0.120274 0.158621 -22.4395 -1.84651 9.77065 -4.44866 2.1502 -21.7602 -41.6322 -35.1072 -0.901622 -41.0132 -0.693059 -12.3187 39.2339 3.68648 -2.46068 -42.7371 -6.39839 -4.09365 -14.2341 16.0027 0.82413 -10.4558 13.2182 -3.47873e-16 -8.07563e-16 2.48481e-17 -9.77065 -4.44866 2.1502 -4.85861 12.5032 46.6399 0.901622 -41.0132 -0.693059 2.7691 10.2823 -0.0691972 2.46068 -42.7371 -6.39839 2.32874 8.39629 -15.0099 -0.82413 -10.4558 13.2182 2.5842e-15 -6.95746e-16 -1.28837e-14 
-75.3823 95.3542 994.902 -12.0632 -15.0079 -167.448 0 5.37224 -1.21793 -3.29701 -4.00115 3.03091 0 5.94127 1.13336 -3.35648 -2.57768 2.59799 -1.08535e-17 6.33601 0.121658 -2.80085 0.103516 2.6724 -1.16841e-17 6.88189 -0.46916 -2.35092 4.26911 2.81077 -2.08699e-17 8.0451 -1.59297 -1.14407 6.58412 3.24844 -2.67949e-17 10.0463 -0.967353 0.847011 7.66771 3.04848 -3.07187e-17 11.1612 1.66806 0.00706415 0.0210089 0.000559585 -1.36661e-17 5.06312 0.756688 -0.0990908 4.59445 -8.99885 -1.91632e-17 5.09976 0.446172 2.384 -8.30638 -4.07134 -2.12574e-17 5.10962 0.809285 0.166044 -9.32937 -3.10381 1.30426 -8.04703 7.96922 9.89908 -1.67058 4.44982 13.7035 3.43734 -3.45766 -86.4204 29.6448 17.5265 30.8964 0.0632652 0.14496 11.4924 -8.44396 -73.1216 25.6348 0.0524902 0.120274 -3.85062 -40.6144 -0.198343 -1.30426 -8.04702 7.96912 -9.14022 -1.68857 -8.05385 -13.7035 3.43734 -3.45766 75.611 45.484 0.952766 -30.8964 0.0632652 0.14496 -11.9375 -13.461 97.5153 -25.6348 0.0524901 0.120274 -0.742419 -20.7135 -2.05534 9.77065 -4.44866 2.1502 -19.9279 -40.3328 -33.9861 -0.901622 -41.0132 -0.693059 -12.5161 39.6829 3.80392 -2.46068 -42.7371 -6.39839 -4.32402 -14.3512 16.1774 0.82413 -10.4558 13.2182 4.96962e-17 -7.95139e-16 1.2424e-17 -9.77065 -4.44866 2.1502 -3.46197 11.8026 45.3494 0.901622 -41.0132 -0.693059 4.08909 15.0325 -0.275666 2.46068 -42.7371 -6.39839 3.15327 6.10662 -15.2979 -0.82413 -10.4558 13.2182 -1.39149e-15 -5.34234e-16 -1.27098e-14 
-76.9808 94.0441 991.962 -11.3596 -13.8757 -168.962 0 5.37224 -1.21793 -3.25663 -3.59141 2.76807 0 5.94127 1.13336 -3.2529 -2.11232 2.28516 -1.08535e-17 6.33601 0.121658 -2.67729 0.279144 2.3833 -1.16841e-17 6.88189 -0.46916 -2.20884 4.10036 2.50693 -2.08699e-17 8.0451 -1.59297 -1.05359 6.13587 2.92412 -2.67949e-17 10.0463 -0.967353 0.738516 7.1302 2.66156 -3.07187e-17 11.1612 1.66806 0.00126507 0.0302435 0.00975108 -1.36661e-17 5.06312 0.756688 -0.299734 4.00161 -8.7523 -1.91632e-17 5.09976 0.446172 2.54968 -7.85622 -3.87951 -2.12574e-17 5.10962 0.809285 -0.244107 -8.45677 -1.38454 1.30426 -8.04703 7.96922 9.6439 -1.43932 4.50973 13.7035 3.43734 -3.45766 -85.8893 29.3639 17.0602 30.8964 0.0632652 0.14496 11.5597 -8.66694 -74.2334 25.6348 0.0524902 0.120274 -3.76609 -40.779 -0.993611 -1.30426 -8.04702 7.96912 -8.36872 -1.44023 -6.86141 -13.7035 3.43734 -3.45766 78.0293 43.7207 -2.77845 -30.8964 0.0632652 0.14496 -12.0043 -12.7981 94.2888 -25.6348 0.0524901 0.120274 -1.11269 -18.8346 -1.37087 9.77065 -4.44866 2.1502 -16.5148 -38.729 -29.5935 -0.901622 -41.0132 -0.693059 -13.6066 42.0589 4.47525 -2.46068 -42.7371 -6.39839 -3.91102 -16.346 16.0181 0.82413 -10.4558 13.2182 4.96962e-17 -7.95139e-16 1.2424e-17 -9.77065 -4.44866 2.1502 -2.11303 10.6279 44.235 0.901622 -41.0132 -0.693059 5.94401 21.3846 -0.744961 2.46068 -42.7371 -6.39839 3.8903 3.24475 -15.4128 -0.82413 -10.4558 13.2182 5.96354e-16 -6.21202e-16 -1.27968e-14 
-78.6625 92.5434 989.234 -11.2381 -11.807 -170.03 0 5.37224 -1.21793 -3.39434 -2.92743 2.56816 0 5.94127 1.13336 -3.32079 -1.51336 2.04265 -1.08535e-17 6.33601 0.121658 -2.70465 0.59662 2.15449 -1.16841e-17 6.88189 -0.46916 -2.18947 4.01506 2.26044 -2.08699e-17 8.0451 -1.59297 -1.04552 5.75141 2.67579 -2.67949e-17 10.0463 -0.967353 0.660749 6.63571 2.41423 -3.07187e-17 11.1612 1.66806 0.00192949 0.0349513 0.0170006 -1.36661e-17 5.06312 0.756688 -0.368489 3.72096 -6.90679 -1.91632e-17 5.09976 0.446172 2.19252 -7.88132 -2.96471 -2.12574e-17 5.10962 0.809285 -0.30874 -7.73191 -2.78162 1.30426 -8.04703 7.96922 9.68123 -1.13063 4.58491 13.7035 3.43734 -3.45766 -85.7995 29.735 16.5007 30.8964 0.0632652 0.14496 11.6447 -8.97399 -75.755 25.6348 0.0524902 0.120274 -3.46133 -39.8676 -1.19518 -1.30426 -8.04702 7.96912 -8.00173 -1.12281 -6.04374 -13.7035 3.43734 -3.45766 81.6521 41.7975 -6.52893 -30.8964 0.0632652 0.14496 -12.0336 -12.0268 90.5611 -25.6348 0.0524901 0.120274 -2.00197 -16.9332 -1.26304 9.77065 -4.44866 2.1502 -16.0937 -36.0007 -30.3102 -0.901622 -41.0132 -0.693059 -15.0574 44.9581 5.42241 -2.46068 -42.7371 -6.39839 -2.79795 -16.7305 16.2518 0.82413 -10.4558 13.2182 8.44835e-16 -7.57867e-16 -2.48481e-17 -9.77065 -4.44866 2.1502 -0.551492 8.5373 42.695 0.901622 -41.0132 -0.693059 9.08482 30.9999 -1.9671 2.46068 -42.7371 -6.39839 5.94139 3.07728 -15.2781 -0.82413 -10.4558 13.2182 -5.96354e-16 -5.59082e-16 -1.27471e-14 
